# xmcd
#
# Track frame offsets:
#	225
#	17070
#	33233
#	52688
#	67118
#	84525
#	97180
#	116083
#	132310
#	146270
#
# Disc length: 2156 seconds
#
# Revision: 6
# Processed by: cddbd v1.5.2PL0 Copyright (c) Steve Scherf et al.
# Submitted via: EasyCDDAExtractor 15.3.0.1
#
DISCID=8508690a
DTITLE=Ednita Nazario - Tu, Sin Mi
DYEAR=1986
DGENRE=Latin
TTITLE0=Que Me Ame Mas
TTITLE1=Mas Que Nunca, Hoy
TTITLE2=El Dolor De Tu Presencia
TTITLE3=Te Amaria
TTITLE4=Tu, Sin Mi
TTITLE5=Alma De Gitana
TTITLE6=No Hay Nadie
TTITLE7=Tema Para Una Voz Triste Y Un Piano
TTITLE8=Esta Herido Mi Amor
TTITLE9=Te Borrare
EXTD=
EXTT0=
EXTT1=
EXTT2=
EXTT3=
EXTT4=
EXTT5=
EXTT6=
EXTT7=
EXTT8=
EXTT9=
PLAYORDER=
